HIERARCHY
ROOT Hips
{
  OFFSET 5.80788e-005 67.184 3.4734
  CHANNELS 6 Xposition Yposition Zposition Zrotation Xrotation Yrotation
  JOINT Chest
  {
    OFFSET 0 8.7983 -4.7612
    CHANNELS 6 Xposition Yposition Zposition Zrotation Xrotation Yrotation
    JOINT Chest2
    {
      OFFSET 0 8.0291 0.4195
      CHANNELS 6 Xposition Yposition Zposition Zrotation Xrotation Yrotation
      JOINT Chest3
      {
        OFFSET 0 9.9351 -2.2114
        CHANNELS 6 Xposition Yposition Zposition Zrotation Xrotation Yrotation
        JOINT Neck
        {
          OFFSET 0 22.3885 -0.4656
          CHANNELS 6 Xposition Yposition Zposition Zrotation Xrotation Yrotation
          JOINT Head
          {
            OFFSET -0.0001 12.643 3.4389
            CHANNELS 6 Xposition Yposition Zposition Zrotation Xrotation Yrotation
            End Site
            {
              OFFSET 0.0001 17.6655 0.5274
            }
          }
        }
        JOINT LeftCollar
        {
          OFFSET 2.2603 21.606 7.4023
          CHANNELS 6 Xposition Yposition Zposition Zrotation Xrotation Yrotation
          JOINT LeftShoulder
          {
            OFFSET 13.5163 -1.1332 -5.0146
            CHANNELS 6 Xposition Yposition Zposition Zrotation Xrotation Yrotation
            JOINT LeftElbow
            {
              OFFSET -0.0995 -28.05 -0.2431
              CHANNELS 6 Xposition Yposition Zposition Zrotation Xrotation Yrotation
              JOINT LeftWrist
              {
                OFFSET 0.0679 -23.3996 -0.1402
                CHANNELS 6 Xposition Yposition Zposition Zrotation Xrotation Yrotation
                JOINT LeftFinger1
                {
                  OFFSET 0.7932 -9.069 2.5189
                  CHANNELS 6 Xposition Yposition Zposition Zrotation Xrotation Yrotation
                  JOINT LeftFinger11
                  {
                    OFFSET -0.8272 -3.3923 0.5977
                    CHANNELS 6 Xposition Yposition Zposition Zrotation Xrotation Yrotation
                    JOINT LeftFinger12
                    {
                      OFFSET -0.5649 -2.3158 0.4082
                      CHANNELS 6 Xposition Yposition Zposition Zrotation Xrotation Yrotation
                      End Site
                      {
                        OFFSET -0.4919 -1.6479 0.2673
                      }
                    }
                  }
                }
                JOINT LeftFinger2
                {
                  OFFSET 0.9159 -9.2044 0.2193
                  CHANNELS 6 Xposition Yposition Zposition Zrotation Xrotation Yrotation
                  JOINT LeftFinger21
                  {
                    OFFSET 0.0117 -4.1944 -0.0248
                    CHANNELS 6 Xposition Yposition Zposition Zrotation Xrotation Yrotation
                    JOINT LeftFinger22
                    {
                      OFFSET 0.0071 -2.3249 -0.0142
                      CHANNELS 6 Xposition Yposition Zposition Zrotation Xrotation Yrotation
                      End Site
                      {
                        OFFSET -0.1475 -2.0882 0.0028
                      }
                    }
                  }
                }
                JOINT LeftFinger3
                {
                  OFFSET 0.6113 -8.7231 -2.0637
                  CHANNELS 6 Xposition Yposition Zposition Zrotation Xrotation Yrotation
                  JOINT LeftFinger31
                  {
                    OFFSET -0.1927 -3.8059 -0.2383
                    CHANNELS 6 Xposition Yposition Zposition Zrotation Xrotation Yrotation
                    JOINT LeftFinger32
                    {
                      OFFSET -0.1091 -2.1688 -0.1362
                      CHANNELS 6 Xposition Yposition Zposition Zrotation Xrotation Yrotation
                      End Site
                      {
                        OFFSET -0.2358 -1.9176 -0.0906
                      }
                    }
                  }
                }
                JOINT LeftFinger4
                {
                  OFFSET -0.6151 -8.0947 -3.5641
                  CHANNELS 6 Xposition Yposition Zposition Zrotation Xrotation Yrotation
                  JOINT LeftFinger41
                  {
                    OFFSET -0.4882 -2.341 -0.6462
                    CHANNELS 6 Xposition Yposition Zposition Zrotation Xrotation Yrotation
                    JOINT LeftFinger42
                    {
                      OFFSET -0.3575 -1.7167 -0.4742
                      CHANNELS 6 Xposition Yposition Zposition Zrotation Xrotation Yrotation
                      End Site
                      {
                        OFFSET -0.4187 -1.5237 -0.3496
                      }
                    }
                  }
                }
                JOINT LeftFinger0
                {
                  OFFSET -1.42 -1.8761 1.4223
                  CHANNELS 6 Xposition Yposition Zposition Zrotation Xrotation Yrotation
                  JOINT LeftFinger01
                  {
                    OFFSET -1.1471 -3.4929 2.6334
                    CHANNELS 6 Xposition Yposition Zposition Zrotation Xrotation Yrotation
                    JOINT LeftFinger02
                    {
                      OFFSET -0.823 -2.3 1.6571
                      CHANNELS 6 Xposition Yposition Zposition Zrotation Xrotation Yrotation
                      End Site
                      {
                        OFFSET -0.5822 -1.6914 1.1582
                      }
                    }
                  }
                }
              }
            }
          }
        }
        JOINT RightCollar
        {
          OFFSET -2.2603 21.606 7.4023
          CHANNELS 6 Xposition Yposition Zposition Zrotation Xrotation Yrotation
          JOINT RightShoulder
          {
            OFFSET -13.5187 -1.1334 -5.0155
            CHANNELS 6 Xposition Yposition Zposition Zrotation Xrotation Yrotation
            JOINT RightElbow
            {
              OFFSET 0.0994 -28.0499 -0.2431
              CHANNELS 6 Xposition Yposition Zposition Zrotation Xrotation Yrotation
              JOINT RightWrist
              {
                OFFSET -0.0679 -23.3996 -0.1402
                CHANNELS 6 Xposition Yposition Zposition Zrotation Xrotation Yrotation
                JOINT RightFinger1
                {
                  OFFSET -0.7932 -9.0691 2.5189
                  CHANNELS 6 Xposition Yposition Zposition Zrotation Xrotation Yrotation
                  JOINT RightFinger11
                  {
                    OFFSET 0.8272 -3.3923 0.5977
                    CHANNELS 6 Xposition Yposition Zposition Zrotation Xrotation Yrotation
                    JOINT RightFinger12
                    {
                      OFFSET 0.565 -2.3158 0.4082
                      CHANNELS 6 Xposition Yposition Zposition Zrotation Xrotation Yrotation
                      End Site
                      {
                        OFFSET 0.4919 -1.6479 0.2673
                      }
                    }
                  }
                }
                JOINT RightFinger2
                {
                  OFFSET -0.916 -9.2044 0.2193
                  CHANNELS 6 Xposition Yposition Zposition Zrotation Xrotation Yrotation
                  JOINT RightFinger21
                  {
                    OFFSET -0.0117 -4.1944 -0.0248
                    CHANNELS 6 Xposition Yposition Zposition Zrotation Xrotation Yrotation
                    JOINT RightFinger22
                    {
                      OFFSET -0.0071 -2.3249 -0.0142
                      CHANNELS 6 Xposition Yposition Zposition Zrotation Xrotation Yrotation
                      End Site
                      {
                        OFFSET 0.1475 -2.0882 0.0028
                      }
                    }
                  }
                }
                JOINT RightFinger3
                {
                  OFFSET -0.6113 -8.7231 -2.0637
                  CHANNELS 6 Xposition Yposition Zposition Zrotation Xrotation Yrotation
                  JOINT RightFinger31
                  {
                    OFFSET 0.1927 -3.8059 -0.2383
                    CHANNELS 6 Xposition Yposition Zposition Zrotation Xrotation Yrotation
                    JOINT RightFinger32
                    {
                      OFFSET 0.1091 -2.1688 -0.1362
                      CHANNELS 6 Xposition Yposition Zposition Zrotation Xrotation Yrotation
                      End Site
                      {
                        OFFSET 0.2358 -1.9176 -0.0906
                      }
                    }
                  }
                }
                JOINT RightFinger4
                {
                  OFFSET 0.6151 -8.0947 -3.564
                  CHANNELS 6 Xposition Yposition Zposition Zrotation Xrotation Yrotation
                  JOINT RightFinger41
                  {
                    OFFSET 0.4882 -2.341 -0.6462
                    CHANNELS 6 Xposition Yposition Zposition Zrotation Xrotation Yrotation
                    JOINT RightFinger42
                    {
                      OFFSET 0.3574 -1.7166 -0.4742
                      CHANNELS 6 Xposition Yposition Zposition Zrotation Xrotation Yrotation
                      End Site
                      {
                        OFFSET 0.4187 -1.5237 -0.3496
                      }
                    }
                  }
                }
                JOINT RightFinger0
                {
                  OFFSET 1.4199 -1.8761 1.4221
                  CHANNELS 6 Xposition Yposition Zposition Zrotation Xrotation Yrotation
                  JOINT RightFinger01
                  {
                    OFFSET 1.1472 -3.4929 2.6336
                    CHANNELS 6 Xposition Yposition Zposition Zrotation Xrotation Yrotation
                    JOINT RightFinger02
                    {
                      OFFSET 0.8229 -2.3 1.6571
                      CHANNELS 6 Xposition Yposition Zposition Zrotation Xrotation Yrotation
                      End Site
                      {
                        OFFSET 0.5822 -1.6914 1.1582
                      }
                    }
                  }
                }
              }
            }
          }
        }
      }
    }
  }
  JOINT RightHip
  {
    OFFSET -9.412 3.9771 -0.7758
    CHANNELS 6 Xposition Yposition Zposition Zrotation Xrotation Yrotation
    JOINT RightKnee
    {
      OFFSET -0.7531 -40.938 0
      CHANNELS 6 Xposition Yposition Zposition Zrotation Xrotation Yrotation
      JOINT RightAnkle
      {
        OFFSET 0 -40.1986 0
        CHANNELS 6 Xposition Yposition Zposition Zrotation Xrotation Yrotation
        JOINT RightToe
        {
          OFFSET 0 -4.4182 9.239
          CHANNELS 6 Xposition Yposition Zposition Zrotation Xrotation Yrotation
          End Site
          {
            OFFSET 0 0 6.1981
          }
        }
      }
    }
  }
  JOINT LeftHip
  {
    OFFSET 9.4119 3.9773 -0.7758
    CHANNELS 6 Xposition Yposition Zposition Zrotation Xrotation Yrotation
    JOINT LeftKnee
    {
      OFFSET 0.7532 -40.9383 0
      CHANNELS 6 Xposition Yposition Zposition Zrotation Xrotation Yrotation
      JOINT LeftAnkle
      {
        OFFSET 0 -40.1986 0
        CHANNELS 6 Xposition Yposition Zposition Zrotation Xrotation Yrotation
        JOINT LeftToe
        {
          OFFSET 0 -4.4182 9.239
          CHANNELS 6 Xposition Yposition Zposition Zrotation Xrotation Yrotation
          End Site
          {
            OFFSET 0 0 6.1981
          }
        }
      }
    }
  }
}
MOTION
Frames:	4
Frame Time:	0.0333333
0.498003 16.1526 42.2923 -7.01671e-015 7.01671e-015 180 0 8.7983 -4.7612 0.20187 4.34883 -0.0588714 0 8.0291 0.4195 0.410017 8.69743 -0.133742 0 9.9351 -2.2114 0.410018 8.69745 -0.133742 -5.55111e-017 22.3885 -0.4656 3.74509e-006 37.8585 -9.99988e-007 -0.0001 12.643 3.4389 1.83151e-008 -43.7247 1.54455e-007 2.2603 21.606 7.4023 1.28094 -41.3515 7.95981 13.5163 -1.1332 -5.0146 22.3965 -25.0246 13.2285 -0.0995 -28.05 -0.2431 -143.304 -64.0414 173.462 0.0679 -23.3996 -0.1402 -15.7259 -3.55188 15.0591 0.7932 -9.06901 2.5189 3.18055e-015 -3.18055e-015 -3.18055e-015 -0.8272 -3.3923 0.5977 -6.97759e-006 -1.23202e-006 -2.4766e-006 -0.5649 -2.3158 0.4082 1.90833e-014 9.54166e-015 3.18055e-015 0.9159 -9.20441 0.2193 3.18055e-015 -3.18055e-015 -3.18055e-015 0.0117 -4.1944 -0.0248 -0.0128286 0.00232021 8.65818e-005 0.0071 -2.3249 -0.0142 9.54166e-015 6.36111e-015 3.18055e-015 0.6113 -8.7231 -2.0637 3.18055e-015 -3.18055e-015 -3.18055e-015 -0.1927 -3.8059 -0.2383 -0.0161215 0.0030191 0.000869855 -0.1091 -2.1688 -0.1362 -6.36111e-015 3.18055e-015 3.18055e-015 -0.6151 -8.0947 -3.5641 3.18055e-015 -3.18055e-015 -3.18055e-015 -0.4882 -2.341 -0.6462 -0.0127555 0.00316255 0.00286746 -0.3575 -1.7167 -0.4742 6.36111e-015 -3.18055e-015 -6.36111e-015 -1.42 -1.8761 1.4223 3.18055e-015 -3.18055e-015 -3.18055e-015 -1.1471 -3.4929 2.6334 -6.97759e-006 -1.23202e-006 -2.4766e-006 -0.823 -2.3 1.6571 1.90833e-014 9.54166e-015 3.18055e-015 -2.2603 21.606 7.4023 5.22859 -27.4941 -16.2038 -13.5187 -1.1334 -5.0155 -21.692 -18.0116 -10.0505 0.0994 -28.0499 -0.2431 122.26 -63.4761 109.706 -0.0679 -23.3996 -0.1402 13.5991 32.6455 -1.99331 -0.7932 -9.06911 2.5189 -1.59028e-015 3.97569e-016 -2.08724e-015 0.8272 -3.3923 0.5977 -6.36111e-015 -7.95139e-016 1.14301e-015 0.565 -2.3158 0.4082 -4.77083e-015 3.97569e-016 8.44835e-016 -0.916 -9.20441 0.2193 -1.59028e-015 3.97569e-016 -2.08724e-015 -0.0117 -4.1944 -0.0248 0.0129653 0.00231184 -7.98299e-005 -0.0071 -2.3249 -0.0142 7.95139e-015 3.97569e-016 -1.09332e-015 -0.6113 -8.72311 -2.0637 -1.59028e-015 3.97569e-016 -2.08724e-015 0.1927 -3.8059 -0.2383 0.0163103 0.00301805 -0.000872608 0.1091 -2.1688 -0.1362 -6.89673e-033 7.95139e-016 4.96962e-016 0.6151 -8.0947 -3.564 -1.59028e-015 3.97569e-016 -2.08724e-015 0.4882 -2.341 -0.6462 0.0145843 0.00366577 -0.00326303 0.3574 -1.7166 -0.4742 5.03461e-032 7.95139e-016 -3.62782e-015 1.4199 -1.8761 1.4221 -1.59028e-015 3.97569e-016 -2.08724e-015 1.1472 -3.4929 2.6336 -6.36111e-015 -7.95139e-016 1.14301e-015 0.8229 -2.3 1.6571 -4.77083e-015 3.97569e-016 8.44835e-016 -9.412 3.9771 -0.7758 -2.78205 -6.72625 -4.49293 -0.7531 -40.938 0 -166.791 68.7472 163.146 -1.77636e-015 -40.1986 3.55271e-015 -11.9094 53.0543 -0.403178 0 -4.4182 9.239 7.95139e-016 -2.74357e-006 1.59028e-015 9.4119 3.9773 -0.7758 1.92324 -5.88823 4.23267 0.7532 -40.9383 0 166.146 69.6744 -162.518 -1.77636e-015 -40.1986 0 13.6108 53.3212 -0.863302 -1.77636e-015 -4.4182 9.239 -1.97713e-007 1.67265e-006 8.03362e-008 
0.497327 16.2201 42.1761 -7.01671e-015 7.01671e-015 180 0 8.7983 -4.7612 0.202128 4.57239 -0.061247 5.55112e-017 8.0291 0.4195 0.411152 9.14453 -0.139405 0 9.9351 -2.2114 0.411153 9.14456 -0.139406 -1.66533e-016 22.3885 -0.4656 2.69087e-006 36.441 -7.73966e-007 -0.0001 12.643 3.4389 -4.63815e-007 -43.3801 -3.03789e-007 2.2603 21.606 7.4023 2.18116 -42.0545 9.18471 13.5163 -1.1332 -5.0146 22.2414 -25.1952 12.9645 -0.0995 -28.05 -0.2431 -143.78 -63.5622 173.008 0.0679 -23.3996 -0.1402 -15.3327 -3.1392 15.7085 0.7932 -9.069 2.5189 6.36111e-015 -3.18055e-015 6.36111e-015 -0.8272 -3.3923 0.5977 6.36111e-015 -1.90833e-014 9.54166e-015 -0.5649 -2.3158 0.4082 -1.27222e-014 -9.54166e-015 -0 0.9159 -9.2044 0.2193 6.36111e-015 -3.18055e-015 6.36111e-015 0.0117 -4.1944 -0.0248 -0.0128291 0.00233135 9.08746e-005 0.0071 -2.3249 -0.0142 -1.07942e-006 -2.97275e-006 1.07572e-006 0.6113 -8.7231 -2.0637 6.36111e-015 -3.18055e-015 6.36111e-015 -0.1927 -3.8059 -0.2383 -0.0160176 0.00299424 0.000864942 -0.1091 -2.1688 -0.1362 3.18055e-015 9.54166e-015 -6.36111e-015 -0.6151 -8.0947 -3.5641 6.36111e-015 -3.18055e-015 6.36111e-015 -0.4882 -2.341 -0.6462 -0.0125659 0.0031115 0.00281991 -0.3575 -1.7167 -0.4742 -6.36111e-015 -1.27222e-014 6.36111e-015 -1.42 -1.8761 1.4223 6.36111e-015 -3.18055e-015 6.36111e-015 -1.1471 -3.4929 2.6334 6.36111e-015 -1.90833e-014 9.54166e-015 -0.823 -2.3 1.6571 -1.27222e-014 -9.54166e-015 -0 -2.2603 21.606 7.4023 4.90866 -28.0289 -16.5935 -13.5187 -1.1334 -5.0155 -21.5941 -18.1092 -9.91959 0.0994 -28.0499 -0.2431 122.26 -63.4761 109.706 -0.0679 -23.3996 -0.1402 13.4688 32.4995 -2.36685 -0.7932 -9.06911 2.5189 -1.59028e-015 3.18055e-015 8.10048e-015 0.8272 -3.3923 0.5977 -3.18055e-015 1.19271e-015 1.63997e-015 0.565 -2.3158 0.4082 -1.59028e-015 7.95139e-016 3.18055e-015 -0.916 -9.20441 0.2193 -1.59028e-015 3.18055e-015 8.10048e-015 -0.0117 -4.1944 -0.0248 0.0129624 0.00230975 -9.1936e-005 -0.0071 -2.3249 -0.0142 0 0 -3.13086e-015 -0.6113 -8.72311 -2.0637 -1.59028e-015 3.18055e-015 8.10048e-015 0.1927 -3.8059 -0.2383 0.016291 0.00302378 -0.00087008 0.1091 -2.1688 -0.1362 2.41386e-032 -7.95139e-016 1.73937e-015 0.6151 -8.09471 -3.564 -1.59028e-015 3.18055e-015 8.10048e-015 0.4882 -2.341 -0.6462 0.0145588 0.0036544 -0.00325271 0.3574 -1.7166 -0.4742 4.77083e-015 -7.95139e-016 2.5842e-015 1.4199 -1.8761 1.4221 -1.59028e-015 3.18055e-015 8.10048e-015 1.1472 -3.4929 2.6336 -3.18055e-015 1.19271e-015 1.63997e-015 0.8229 -2.3 1.6571 -1.59028e-015 7.95139e-016 3.18055e-015 -9.412 3.9771 -0.7758 -2.77587 -6.383 -4.45193 -0.7531 -40.938 0 -166.534 69.1335 162.896 0 -40.1986 -3.55271e-015 -11.7374 52.9422 -0.566459 1.77636e-015 -4.4182 9.239 3.94588e-007 9.33352e-008 -1.61559e-007 9.4119 3.9773 -0.7758 2.06997 -5.69329 4.20914 0.7532 -40.9383 0 165.858 70.0598 -162.288 1.77636e-015 -40.1986 -7.10543e-015 13.4301 53.1993 -0.690557 0 -4.4182 9.239 5.91841e-007 -1.47451e-007 -2.44033e-007 
0.496721 16.2811 42.0711 -7.01671e-015 7.01671e-015 180 5.55112e-017 8.7983 -4.7612 0.202013 4.77525 -0.0633457 0 8.0291 0.4195 0.411501 9.55024 -0.144412 0 9.9351 -2.2114 0.411502 9.55025 -0.144412 -2.22045e-016 22.3885 -0.4656 1.09679e-006 35.1578 -1.74098e-007 -0.0001 12.643 3.4389 9.85475e-008 -43.069 6.11096e-009 2.2603 21.606 7.4023 3.02051 -42.678 10.317 13.5163 -1.1332 -5.0146 22.1012 -25.3487 12.7256 -0.0995 -28.05 -0.2431 -144.197 -63.128 172.612 0.0679 -23.3996 -0.1402 -14.9819 -2.76213 16.2924 0.7932 -9.069 2.5189 9.54166e-015 0 -0 -0.8272 -3.3923 0.5977 9.54166e-015 9.54166e-015 -3.18055e-015 -0.5649 -2.3158 0.4082 -3.18055e-015 6.36111e-015 -3.18055e-015 0.9159 -9.2044 0.2193 9.54166e-015 0 -0 0.0117 -4.1944 -0.0248 -0.012836 0.00234011 9.68425e-005 0.0071 -2.3249 -0.0142 -8.4481e-006 -8.32083e-006 -7.74031e-006 0.6113 -8.7231 -2.0637 9.54166e-015 0 -0 -0.1927 -3.8059 -0.2383 -0.0160842 0.0030015 0.000858495 -0.1091 -2.1688 -0.1362 -3.18055e-015 0 -0 -0.6151 -8.0947 -3.5641 9.54166e-015 0 -0 -0.4882 -2.341 -0.6462 -0.0124875 0.00310937 0.00280831 -0.3575 -1.7167 -0.4742 -3.18055e-015 -1.27222e-014 3.18055e-015 -1.42 -1.8761 1.4223 9.54166e-015 0 -0 -1.1471 -3.4929 2.6334 9.54166e-015 9.54166e-015 -3.18055e-015 -0.823 -2.3 1.6571 -3.18055e-015 6.36111e-015 -3.18055e-015 -2.2603 21.606 7.4023 4.61494 -28.5106 -16.9501 -13.5187 -1.1334 -5.0155 -21.5057 -18.1972 -9.80118 0.0994 -28.0499 -0.2431 122.26 -63.4761 109.706 -0.0679 -23.3996 -0.1402 13.3503 32.3683 -2.704 -0.7932 -9.0691 2.5189 -1.59028e-015 0 -3.18055e-015 0.8272 -3.3923 0.5977 -1.59028e-015 0 1.49089e-015 0.565 -2.3158 0.4082 -1.59028e-015 0 1.39149e-015 -0.916 -9.2044 0.2193 -1.59028e-015 0 -3.18055e-015 -0.0117 -4.1944 -0.0248 0.0129598 0.00232471 -8.89066e-005 -0.0071 -2.3249 -0.0142 -0 0 3.18055e-015 -0.6113 -8.7231 -2.0637 -1.59028e-015 0 -3.18055e-015 0.1927 -3.8059 -0.2383 0.0163429 0.00304515 -0.000880656 0.1091 -2.1688 -0.1362 -1.59028e-015 1.98785e-015 9.64106e-015 0.6151 -8.0947 -3.564 -1.59028e-015 0 -3.18055e-015 0.4882 -2.341 -0.6462 0.0145948 0.00368216 -0.00327917 0.3574 -1.7166 -0.4742 3.03456e-032 7.95139e-016 -2.18663e-015 1.4199 -1.8761 1.4221 -1.59028e-015 0 -3.18055e-015 1.1472 -3.4929 2.6336 -1.59028e-015 0 1.49089e-015 0.8229 -2.3 1.6571 -1.59028e-015 0 1.39149e-015 -9.412 3.9771 -0.7758 -2.77041 -6.07338 -4.41511 -0.7531 -40.938 0 -166.293 69.4817 162.661 1.77636e-015 -40.1986 -3.55271e-015 -11.5828 52.8407 -0.71308 -1.77636e-015 -4.4182 9.239 -1.97069e-007 1.55949e-006 8.1274e-008 9.4119 3.9773 -0.7758 2.2024 -5.51615 4.18757 0.7532 -40.9383 7.10543e-015 165.584 70.4082 -162.066 -1.77636e-015 -40.1986 3.55271e-015 13.2678 53.0891 -0.535429 -1.77636e-015 -4.4182 9.239 -1.65665e-022 -5.9687e-006 -1.59028e-015 
0.496114 16.3421 41.9661 -7.01671e-015 7.01671e-015 180 5.55112e-017 8.7983 -4.7612 0.201968 4.97885 -0.0654629 5.55112e-017 8.0291 0.4195 0.412021 9.95746 -0.149473 -5.55112e-017 9.9351 -2.2114 0.412023 9.95749 -0.149473 3.33067e-016 22.3885 -0.4656 1.12582e-006 33.8719 -3.20777e-007 -0.0001 12.643 3.4389 8.58781e-007 -42.7579 3.19888e-007 2.2603 21.606 7.4023 3.88631 -43.2899 11.4749 13.5163 -1.1332 -5.0146 21.9598 -25.5016 12.4858 -0.0995 -28.05 -0.2431 -144.6 -62.6925 172.229 0.0679 -23.3996 -0.1402 -14.6348 -2.38121 16.8742 0.7932 -9.069 2.5189 -6.36111e-015 0 -6.36111e-015 -0.8272 -3.3923 0.5977 -3.18055e-015 -6.36111e-015 -0 -0.5649 -2.3158 0.4082 -5.29669e-031 -9.54166e-015 -3.18055e-015 0.9159 -9.2044 0.2193 -6.36111e-015 0 -6.36111e-015 0.0117 -4.1944 -0.0248 -0.0128044 0.00231884 7.93778e-005 0.0071 -2.3249 -0.0142 -9.54166e-015 -9.54166e-015 9.54166e-015 0.6113 -8.7231 -2.0637 -6.36111e-015 0 -6.36111e-015 -0.1927 -3.8059 -0.2383 -0.0160006 0.00298325 0.000847654 -0.1091 -2.1688 -0.1362 6.36111e-015 0 3.18055e-015 -0.6151 -8.0947 -3.5641 -6.36111e-015 0 -6.36111e-015 -0.4882 -2.341 -0.6462 -0.0126799 0.0031268 0.00283522 -0.3575 -1.7167 -0.4742 1.27222e-014 -6.36111e-015 3.18055e-015 -1.42 -1.8761 1.4223 -6.36111e-015 0 -6.36111e-015 -1.1471 -3.4929 2.6334 -3.18055e-015 -6.36111e-015 -0 -0.823 -2.3 1.6571 -5.29669e-031 -9.54166e-015 -3.18055e-015 -2.2603 21.606 7.4023 4.3163 -28.9908 -17.3114 -13.5187 -1.1334 -5.0155 -21.4165 -18.2849 -9.68244 0.0994 -28.0499 -0.2431 122.26 -63.476 109.707 -0.0679 -23.3996 -0.1402 13.2311 32.2377 -3.04111 -0.7932 -9.0691 2.5189 1.59028e-015 0 1.59028e-015 0.8272 -3.3923 0.5977 1.59028e-015 1.19271e-015 1.39149e-015 0.565 -2.3158 0.4082 -1.17244e-032 -3.97569e-016 -1.68967e-015 -0.916 -9.2044 0.2193 1.59028e-015 0 1.59028e-015 -0.0117 -4.1944 -0.0248 0.012942 0.00231182 -8.1932e-005 -0.0071 -2.3249 -0.0142 1.59028e-015 0 2.78299e-015 -0.6113 -8.7231 -2.0637 1.59028e-015 0 1.59028e-015 0.1927 -3.8059 -0.2383 0.0162974 0.00302068 -0.00087196 0.1091 -2.1688 -0.1362 4.77083e-015 7.95139e-016 -9.93923e-016 0.6151 -8.0947 -3.564 1.59028e-015 0 1.59028e-015 0.4882 -2.341 -0.6462 0.0145959 0.00367813 -0.00326364 0.3574 -1.7166 -0.4742 -5.10358e-032 -7.95139e-016 -3.67752e-015 1.4199 -1.8761 1.4221 1.59028e-015 0 1.59028e-015 1.1472 -3.4929 2.6336 1.59028e-015 1.19271e-015 1.39149e-015 0.8229 -2.3 1.6571 -1.17244e-032 -3.97569e-016 -1.68967e-015 -9.412 3.9771 -0.7758 -2.76508 -5.76282 -4.37849 -0.7531 -40.938 0 -166.043 69.8305 162.418 -1.77636e-015 -40.1986 -3.55271e-015 -11.4291 52.7392 -0.858904 0 -4.4182 9.239 1.31463e-007 2.46802e-008 8.45322e-007 9.4119 3.9773 -0.7758 2.33475 -5.34136 4.16571 0.7532 -40.9383 0 165.304 70.7541 -161.838 0 -40.1986 -3.55271e-015 13.1064 52.9786 -0.381174 -1.77636e-015 -4.4182 9.239 3.32317e-007 -2.56987e-006 3.45906e-006 
